# xmcd CD database file
#
# Track frame offsets:
#	150
#	14724
#	35698
#	53133
#	75118
#	88080
#	106892
#	118324
#	134896
#	157372
#	167376
#	185569
#	208439
#
# Disc length: 3120 seconds
#
# Revision: 0
# Processed by: cddbd v1.5.1PL2 Copyright (c) Steve Scherf et al.
# Submitted via: CDex 1.51
#
DISCID=be0c2e0d
DTITLE=The Dynamite Vikings - Search For Happiness
DYEAR=2006
DGENRE=Jazz
TTITLE0=Hejudamej
TTITLE1=Once Upon A Time
TTITLE2=All These Notes Are Wrong
TTITLE3=Now Or Never
TTITLE4=Why To Search
TTITLE5=Search For Happiness
TTITLE6=Viking's Plan
TTITLE7=17
TTITLE8=Ellak Doom
TTITLE9=As We Speek
TTITLE10=Message
TTITLE11=Rumblin'
TTITLE12=Old Ship
EXTD=YEAR: 2006
EXTT0=
EXTT1=
EXTT2=
EXTT3=
EXTT4=
EXTT5=
EXTT6=
EXTT7=
EXTT8=
EXTT9=
EXTT10=
EXTT11=
EXTT12=
PLAYORDER=
